<svg width="201" height="240" viewBox="0 0 201 240" fill="none" xmlns="http://www.w3.org/2000/svg">
<g opacity="0.3">
<path opacity="0.3" d="M139.811 49.25C134.344 49.2447 129.102 47.0704 125.236 43.2046C121.37 39.3387 119.196 34.097 119.191 28.6299V1.85854e-06H27.0607C23.526 -0.00131167 20.0255 0.693646 16.7595 2.04541C13.4935 3.39718 10.5258 5.37922 8.02588 7.87818C5.526 10.3771 3.54292 13.3441 2.18994 16.6096C0.836962 19.8751 0.140625 23.3752 0.140625 26.9099V189.13C0.140625 192.665 0.836962 196.165 2.18994 199.43C3.54292 202.696 5.526 205.663 8.02588 208.162C10.5258 210.661 13.4935 212.643 16.7595 213.994C20.0255 215.346 23.526 216.041 27.0607 216.04H137.661C144.798 216.04 151.642 213.205 156.689 208.158C161.735 203.112 164.571 196.267 164.571 189.13V49.25H139.811Z" fill="#0072FF"/>
</g>
<path d="M164.571 49.25H139.812C134.344 49.2447 129.103 47.0704 125.237 43.2046C121.371 39.3387 119.197 34.097 119.191 28.6299V0L164.571 49.25Z" fill="#0072FF"/>
<path d="M130.74 83.7302H27.4998C26.5079 83.7302 25.5566 83.3362 24.8552 82.6348C24.1539 81.9334 23.7598 80.9821 23.7598 79.9902C23.7585 79.4982 23.8543 79.0108 24.0416 78.5559C24.229 78.101 24.5043 77.6875 24.8517 77.3391C25.1991 76.9908 25.6118 76.7145 26.0662 76.5259C26.5206 76.3373 27.0078 76.2402 27.4998 76.2402H130.74C131.734 76.2402 132.688 76.6354 133.391 77.3386C134.095 78.0419 134.49 78.9957 134.49 79.9902C134.487 80.9831 134.091 81.9344 133.388 82.6355C132.685 83.3366 131.733 83.7302 130.74 83.7302Z" fill="#0072FF"/>
<path d="M130.74 106.1H27.4998C26.5079 106.1 25.5566 105.706 24.8552 105.005C24.1539 104.303 23.7598 103.352 23.7598 102.36C23.7585 101.868 23.8543 101.381 24.0416 100.926C24.229 100.471 24.5043 100.058 24.8517 99.7092C25.1991 99.3609 25.6118 99.0846 26.0662 98.896C26.5206 98.7074 27.0078 98.6103 27.4998 98.6104H130.74C131.734 98.6104 132.688 99.0052 133.391 99.7085C134.095 100.412 134.49 101.366 134.49 102.36C134.487 103.353 134.091 104.304 133.388 105.005C132.685 105.706 131.733 106.1 130.74 106.1Z" fill="#0072FF"/>
<path d="M130.74 128.47H27.4998C27.0078 128.47 26.5206 128.373 26.0662 128.184C25.6118 127.996 25.1991 127.719 24.8517 127.371C24.5043 127.023 24.229 126.609 24.0416 126.154C23.8543 125.699 23.7585 125.212 23.7598 124.72C23.7598 123.728 24.1539 122.777 24.8552 122.075C25.5566 121.374 26.5079 120.98 27.4998 120.98H130.74C131.733 120.98 132.685 121.374 133.388 122.075C134.091 122.776 134.487 123.727 134.49 124.72C134.49 125.715 134.095 126.668 133.391 127.372C132.688 128.075 131.734 128.47 130.74 128.47Z" fill="#0072FF"/>
<path d="M89.9998 150.84H27.4998C27.0078 150.84 26.5206 150.743 26.0662 150.554C25.6118 150.366 25.1991 150.089 24.8517 149.741C24.5043 149.393 24.229 148.979 24.0416 148.524C23.8543 148.07 23.7585 147.582 23.7598 147.09C23.7598 146.098 24.1539 145.147 24.8552 144.445C25.5566 143.744 26.5079 143.35 27.4998 143.35H89.9998C90.9917 143.35 91.9429 143.744 92.6443 144.445C93.3457 145.147 93.7398 146.098 93.7398 147.09C93.7411 147.582 93.6453 148.07 93.4579 148.524C93.2705 148.979 92.9953 149.393 92.6478 149.741C92.3004 150.089 91.8878 150.366 91.4334 150.554C90.979 150.743 90.4918 150.84 89.9998 150.84Z" fill="#0072FF"/>
<path d="M184.09 170.61H59.0502C50.1805 170.61 42.9902 177.8 42.9902 186.67V223.95C42.9902 232.82 50.1805 240.01 59.0502 240.01H184.09C192.96 240.01 200.15 232.82 200.15 223.95V186.67C200.15 177.8 192.96 170.61 184.09 170.61Z" fill="#0072FF"/>
<path d="M61.3209 213.38V220.65H53.791V213.38H61.3209Z" fill="white"/>
<path d="M90.2616 213.4C89.0067 215.671 87.116 217.527 84.8215 218.74C82.237 220.062 79.3637 220.718 76.4615 220.65H65.1016V190.58H76.4615C79.3657 190.509 82.2429 191.151 84.8416 192.45C87.129 193.637 89.0146 195.474 90.2616 197.73C91.5545 200.13 92.2056 202.824 92.1516 205.55C92.2031 208.285 91.5523 210.988 90.2616 213.4ZM82.4415 211.89C83.2544 211.055 83.8843 210.061 84.2906 208.969C84.697 207.877 84.8711 206.713 84.8016 205.55C84.8716 204.389 84.6977 203.225 84.2913 202.135C83.8848 201.045 83.2547 200.052 82.4415 199.22C80.6196 197.622 78.24 196.81 75.8215 196.96H72.3816V214.14H75.8215C78.238 214.288 80.6159 213.48 82.4415 211.89Z" fill="white"/>
<path d="M118.29 192.09C120.578 193.389 122.469 195.287 123.76 197.58C125.114 200.001 125.804 202.737 125.76 205.51C125.811 208.29 125.121 211.034 123.76 213.46C122.472 215.763 120.576 217.669 118.28 218.97C115.943 220.305 113.292 220.995 110.6 220.97C107.908 220.995 105.258 220.305 102.92 218.97C100.624 217.669 98.7287 215.763 97.4402 213.46C96.0799 211.034 95.3896 208.29 95.4402 205.51C95.3884 202.736 96.0788 199.998 97.4402 197.58C98.7352 195.287 100.63 193.389 102.92 192.09C105.258 190.755 107.908 190.065 110.6 190.09C113.295 190.066 115.948 190.756 118.29 192.09ZM104.89 199.19C103.415 200.955 102.665 203.213 102.79 205.51C102.664 207.797 103.415 210.047 104.89 211.8C105.609 212.581 106.49 213.195 107.471 213.599C108.452 214.004 109.51 214.188 110.57 214.14C111.627 214.184 112.681 213.997 113.658 213.593C114.635 213.189 115.513 212.577 116.23 211.8C117.713 210.05 118.471 207.8 118.35 205.51C118.47 203.223 117.72 200.976 116.25 199.22C115.532 198.438 114.651 197.824 113.67 197.42C112.689 197.015 111.63 196.831 110.57 196.88C109.513 196.831 108.457 197.013 107.477 197.412C106.496 197.81 105.614 198.417 104.89 199.19Z" fill="white"/>
<path d="M153.081 193.3C155.617 195.363 157.342 198.257 157.951 201.47H150.251C149.731 200.138 148.821 198.995 147.641 198.19C146.396 197.379 144.935 196.965 143.451 197C142.47 196.968 141.496 197.163 140.603 197.569C139.71 197.975 138.922 198.581 138.301 199.34C136.909 201.121 136.2 203.342 136.301 205.6C136.199 207.849 136.909 210.06 138.301 211.83C138.927 212.581 139.716 213.18 140.609 213.58C141.501 213.98 142.473 214.172 143.451 214.14C144.936 214.179 146.398 213.764 147.641 212.95C148.815 212.159 149.724 211.034 150.251 209.72H157.951C157.332 212.923 155.608 215.807 153.081 217.87C150.361 219.947 147 221.008 143.581 220.87C140.886 220.927 138.227 220.256 135.881 218.93C133.685 217.654 131.904 215.772 130.751 213.51C129.508 211.029 128.887 208.284 128.941 205.51C128.887 202.736 129.509 199.991 130.751 197.51C131.904 195.248 133.685 193.366 135.881 192.09C138.227 190.763 140.886 190.093 143.581 190.15C147.018 190.059 150.379 191.173 153.081 193.3Z" fill="white"/>
<path d="M180.281 220.65L173.941 211.29L168.501 220.65H160.161L169.781 205.17L159.871 190.58H168.501L174.671 199.64L179.981 190.58H188.281L178.791 205.72L188.911 220.65H180.281Z" fill="white"/>
</svg>
