<svg width="201" height="240" viewBox="0 0 201 240" fill="none" xmlns="http://www.w3.org/2000/svg">
<g opacity="0.3">
<path opacity="0.3" d="M139.811 49.24C134.344 49.2347 129.102 47.0606 125.236 43.1947C121.37 39.3288 119.196 34.0871 119.191 28.62V1.85821e-06H27.0607C23.526 -0.00131167 20.0255 0.693768 16.7595 2.04553C13.4935 3.3973 10.5258 5.37928 8.02588 7.87824C5.526 10.3772 3.54292 13.3442 2.18994 16.6097C0.836962 19.8752 0.140625 23.3753 0.140625 26.91V189.13C0.151225 196.262 2.99242 203.098 8.04004 208.136C13.0877 213.174 19.9289 216.003 27.0607 216H137.661C144.798 216 151.642 213.165 156.689 208.118C161.735 203.072 164.571 196.227 164.571 189.09V49.24H139.811Z" fill="#FF9908"/>
</g>
<path d="M164.571 49.24H139.812C134.344 49.2347 129.103 47.0606 125.237 43.1947C121.371 39.3288 119.197 34.0871 119.191 28.62V0L164.571 49.24Z" fill="#FF9908"/>
<path d="M184.09 170.6H59.0502C50.1805 170.6 42.9902 177.79 42.9902 186.66V223.94C42.9902 232.809 50.1805 240 59.0502 240H184.09C192.96 240 200.15 232.809 200.15 223.94V186.66C200.15 177.79 192.96 170.6 184.09 170.6Z" fill="#FF9908"/>
<path d="M90.6003 213.37V220.64H83.0703V213.37H90.6003Z" fill="white"/>
<path d="M117.781 193C120.208 194.815 121.838 197.499 122.331 200.49H114.631C114.126 199.415 113.311 198.516 112.291 197.909C111.149 197.23 109.84 196.884 108.511 196.909C107.476 196.867 106.445 197.051 105.489 197.451C104.534 197.85 103.678 198.453 102.981 199.219C101.516 200.974 100.77 203.217 100.891 205.5C100.891 208.36 101.621 210.556 103.081 212.09C103.903 212.886 104.883 213.503 105.958 213.899C107.032 214.295 108.178 214.462 109.321 214.39C110.952 214.418 112.549 213.916 113.871 212.96C115.214 211.948 116.185 210.521 116.631 208.9H107.441V203.669H122.711V211C122.127 212.789 121.204 214.45 119.991 215.89C118.679 217.439 117.049 218.687 115.211 219.549C113.125 220.512 110.848 220.99 108.551 220.95C105.76 221.022 102.999 220.352 100.551 219.01C98.3096 217.75 96.4823 215.868 95.2909 213.59C94.0277 211.133 93.3921 208.402 93.4408 205.64C93.3855 202.861 94.0213 200.112 95.2909 197.64C96.4801 195.367 98.2995 193.485 100.531 192.219C102.944 190.89 105.667 190.224 108.421 190.289C111.756 190.126 115.049 191.08 117.781 193Z" fill="white"/>
<path d="M134.071 190.57V220.64H126.801V190.57H134.071Z" fill="white"/>
<path d="M158.7 190.57V196.36H146.36V203H155.89V208.53H146.36V220.69H139.09V190.62L158.7 190.57Z" fill="white"/>
<path d="M77.7809 154.43C66.8713 154.417 56.4123 150.077 48.698 142.363C40.9837 134.648 36.6441 124.19 36.6309 113.28C36.6441 102.37 40.9837 91.9113 48.698 84.197C56.4123 76.4828 66.8713 72.1431 77.7809 72.1299C88.6905 72.1431 99.1494 76.4828 106.864 84.197C114.578 91.9113 118.918 102.37 118.931 113.28C118.918 124.19 114.578 134.648 106.864 142.363C99.1494 150.077 88.6905 154.417 77.7809 154.43ZM77.7809 79.3399C68.7843 79.3558 60.1607 82.9367 53.7992 89.2982C47.4376 95.6598 43.8567 104.283 43.8408 113.28C43.8567 122.276 47.4376 130.9 53.7992 137.262C60.1607 143.623 68.7843 147.204 77.7809 147.22C86.7775 147.204 95.401 143.623 101.763 137.262C108.124 130.9 111.705 122.276 111.721 113.28C111.705 104.283 108.124 95.6598 101.763 89.2982C95.401 82.9367 86.7775 79.3558 77.7809 79.3399Z" fill="#FF9908"/>
<path d="M77.78 136.34C73.0778 136.346 68.4467 135.191 64.2982 132.978C60.1497 130.764 56.6122 127.56 54 123.65L60 119.65C61.9512 122.57 64.5929 124.965 67.6909 126.62C70.7889 128.275 74.2475 129.141 77.76 129.14C81.2738 129.141 84.7336 128.275 87.8319 126.618C90.9303 124.961 93.5712 122.563 95.52 119.64L101.52 123.64C98.9134 127.546 95.3829 130.75 91.2417 132.965C87.1005 135.18 82.4766 136.34 77.78 136.34Z" fill="#FF9908"/>
<path d="M66.3701 106.97C69.0155 106.97 71.16 104.825 71.16 102.18C71.16 99.5342 69.0155 97.3896 66.3701 97.3896C63.7246 97.3896 61.5801 99.5342 61.5801 102.18C61.5801 104.825 63.7246 106.97 66.3701 106.97Z" fill="#FF9908"/>
<path d="M89.1923 106.97C91.8378 106.97 93.9823 104.825 93.9823 102.18C93.9823 99.5342 91.8378 97.3896 89.1923 97.3896C86.5469 97.3896 84.4023 99.5342 84.4023 102.18C84.4023 104.825 86.5469 106.97 89.1923 106.97Z" fill="#FF9908"/>
</svg>
