<svg width="201" height="240" viewBox="0 0 201 240" fill="none" xmlns="http://www.w3.org/2000/svg">
<g opacity="0.3">
<path opacity="0.3" d="M139.811 49.24C134.344 49.2347 129.102 47.0606 125.236 43.1947C121.37 39.3288 119.196 34.0871 119.191 28.62V1.85821e-06H27.0607C23.526 -0.00131167 20.0255 0.693768 16.7595 2.04553C13.4935 3.3973 10.5258 5.37928 8.02588 7.87824C5.526 10.3772 3.54292 13.3442 2.18994 16.6097C0.836962 19.8752 0.140625 23.3753 0.140625 26.91V189.13C0.151225 196.262 2.99242 203.098 8.04004 208.136C13.0877 213.174 19.9289 216.003 27.0607 216H137.661C144.798 216 151.642 213.165 156.689 208.118C161.735 203.072 164.571 196.227 164.571 189.09V49.24H139.811Z" fill="#005FAD"/>
</g>
<path d="M164.571 49.24H139.812C134.344 49.2347 129.103 47.0606 125.237 43.1947C121.371 39.3288 119.197 34.0871 119.191 28.62V0L164.571 49.24Z" fill="#005FAD"/>
<path d="M184.09 170.6H59.0502C50.1805 170.6 42.9902 177.79 42.9902 186.659V223.939C42.9902 232.809 50.1805 240 59.0502 240H184.09C192.96 240 200.15 232.809 200.15 223.939V186.659C200.15 177.79 192.96 170.6 184.09 170.6Z" fill="#005FAD"/>
<path d="M83.48 213.37V220.64H76V213.37H83.48Z" fill="white"/>
<path d="M121.079 190.78V220.64H113.799V202L107.339 220.67H100.999L94.4988 201.96V220.67H87.2188V190.81H96.1088L104.239 211.61L112.239 190.81L121.079 190.78Z" fill="white"/>
<path d="M133.372 190.57V220.64H126.102V190.57H133.372Z" fill="white"/>
<path d="M163.541 213.39C162.289 215.664 160.397 217.52 158.101 218.73C155.516 220.053 152.643 220.709 149.741 220.64H138.391V190.57H149.741C152.645 190.492 155.524 191.134 158.121 192.44C160.411 193.623 162.297 195.461 163.541 197.72C164.843 200.117 165.497 202.812 165.441 205.54C165.495 208.277 164.84 210.981 163.541 213.39ZM155.721 211.88C156.533 211.045 157.163 210.051 157.57 208.959C157.976 207.867 158.15 206.703 158.081 205.54C158.149 204.377 157.975 203.213 157.569 202.121C157.163 201.029 156.533 200.035 155.721 199.2C153.895 197.61 151.517 196.802 149.101 196.95H145.661V214.13H149.101C151.517 214.278 153.895 213.47 155.721 211.88Z" fill="white"/>
<path d="M120.37 131.92H109.421V87.6596C109.421 86.177 108.832 84.7552 107.783 83.7069C106.735 82.6586 105.313 82.0696 103.83 82.0696H75.8304C74.347 82.0696 72.9242 82.6582 71.8743 83.7063C70.8244 84.7543 70.2331 86.1761 70.2305 87.6596V131.92H59.2305V83.9196C59.2331 80.5186 60.586 77.2578 62.9918 74.8539C65.3976 72.45 68.6596 71.0996 72.0605 71.0996H107.47C110.871 71.0996 114.131 72.4503 116.536 74.8545C118.94 77.2587 120.291 80.5195 120.291 83.9196L120.37 131.92Z" fill="#005FAD"/>
<path d="M107.39 144.899C114.559 144.899 120.37 139.088 120.37 131.919C120.37 124.751 114.559 118.939 107.39 118.939C100.222 118.939 94.4102 124.751 94.4102 131.919C94.4102 139.088 100.222 144.899 107.39 144.899Z" fill="#005FAD"/>
<path d="M57.3198 144.899C64.4885 144.899 70.2998 139.088 70.2998 131.919C70.2998 124.751 64.4885 118.939 57.3198 118.939C50.1512 118.939 44.3398 124.751 44.3398 131.919C44.3398 139.088 50.1512 144.899 57.3198 144.899Z" fill="#005FAD"/>
</svg>
