<svg width="201" height="240" viewBox="0 0 201 240" fill="none" xmlns="http://www.w3.org/2000/svg">
<g opacity="0.3">
<path opacity="0.3" d="M140.1 49.24C134.633 49.2347 129.391 47.0606 125.525 43.1947C121.659 39.3288 119.485 34.0871 119.48 28.62V0H27.3398C20.2029 0 13.3581 2.83517 8.31152 7.88177C3.26492 12.9284 0.429687 19.773 0.429688 26.91V189.13C0.440286 196.26 3.28023 203.094 8.32568 208.132C13.3711 213.17 20.2098 216 27.3398 216H137.94C141.474 216.001 144.974 215.306 148.239 213.954C151.505 212.602 154.472 210.62 156.971 208.121C159.47 205.622 161.452 202.655 162.804 199.39C164.156 196.124 164.851 192.624 164.85 189.09V49.24H140.1Z" fill="#0072FF"/>
</g>
<path d="M164.851 49.24H140.101C134.633 49.2347 129.392 47.0606 125.526 43.1947C121.66 39.3288 119.486 34.0871 119.48 28.62V0L164.851 49.24Z" fill="#0072FF"/>
<path d="M184.37 170.6H59.3296C50.4599 170.6 43.2695 177.79 43.2695 186.66V223.94C43.2695 232.809 50.4599 240 59.3296 240H184.37C193.239 240 200.429 232.809 200.429 223.94V186.66C200.429 177.79 193.239 170.6 184.37 170.6Z" fill="#0072FF"/>
<path d="M73.8403 213.37V220.64H66.3203V213.37H73.8403Z" fill="white"/>
<path d="M111.439 190.79V220.64H104.169V202L97.699 220.67H91.4089L84.8989 201.96V220.67H77.6289V190.82H86.519L94.6389 211.61L102.639 190.82L111.439 190.79Z" fill="white"/>
<path d="M138.469 192.08C140.757 193.379 142.647 195.277 143.939 197.57C145.291 199.991 145.981 202.726 145.939 205.5C145.99 208.296 145.3 211.057 143.939 213.5C142.643 215.798 140.745 217.7 138.449 219C136.111 220.335 133.461 221.025 130.769 221C128.077 221.022 125.427 220.332 123.089 219C120.795 217.7 118.9 215.798 117.609 213.5C116.242 211.058 115.552 208.297 115.609 205.5C115.557 202.725 116.247 199.988 117.609 197.57C118.907 195.279 120.8 193.382 123.089 192.08C125.427 190.747 128.077 190.057 130.769 190.08C133.467 190.054 136.124 190.744 138.469 192.08ZM125.069 199.19C123.589 200.948 122.837 203.205 122.969 205.5C122.848 207.79 123.598 210.04 125.069 211.8C125.787 212.581 126.668 213.195 127.649 213.599C128.63 214.003 129.688 214.188 130.749 214.14C131.805 214.185 132.859 213.999 133.837 213.595C134.815 213.191 135.692 212.578 136.408 211.8C137.897 210.049 138.659 207.795 138.539 205.5C138.656 203.212 137.902 200.964 136.429 199.21C135.71 198.428 134.83 197.814 133.848 197.409C132.867 197.005 131.809 196.821 130.749 196.87C129.69 196.82 128.634 197.002 127.653 197.403C126.672 197.804 125.79 198.413 125.069 199.19Z" fill="white"/>
<path d="M155.629 190.57L162.999 213.2L170.359 190.57H178.139L167.679 220.64H158.279L147.859 190.57H155.629Z" fill="white"/>
<path d="M78.6111 69.6104C68.4268 69.6104 58.6594 73.6561 51.458 80.8575C44.2566 88.0589 40.2109 97.8261 40.2109 108.01C40.2109 118.195 44.2566 127.962 51.458 135.163C58.6594 142.365 68.4268 146.41 78.6111 146.41C88.7946 146.405 98.5591 142.356 105.758 135.153C112.957 127.951 117.001 118.184 117.001 108C116.996 97.8203 112.949 88.0588 105.751 80.8604C98.5526 73.662 88.7911 69.6157 78.6111 69.6104ZM78.6111 77.0904C80.6479 77.0904 82.6012 77.8995 84.0415 79.3398C85.4818 80.7801 86.291 82.7335 86.291 84.7704C86.291 86.8072 85.4818 88.7606 84.0415 90.2009C82.6012 91.6412 80.6479 92.4504 78.6111 92.4504C76.5742 92.4504 74.6207 91.6412 73.1804 90.2009C71.7401 88.7606 70.9309 86.8072 70.9309 84.7704C70.9309 82.7335 71.7401 80.7801 73.1804 79.3398C74.6207 77.8995 76.5742 77.0904 78.6111 77.0904ZM51.8311 92.5504C52.8497 90.7869 54.527 89.5002 56.4941 88.9732C58.4613 88.4462 60.5573 88.7222 62.321 89.7404C63.1951 90.2439 63.9614 90.9147 64.5762 91.7144C65.1909 92.5141 65.6419 93.4271 65.9038 94.4012C66.1657 95.3754 66.2332 96.3915 66.1023 97.3917C65.9714 98.3918 65.6446 99.3564 65.1409 100.23C64.1203 101.995 62.4412 103.281 60.4724 103.808C58.5036 104.335 56.4061 104.059 54.6409 103.04C52.8774 102.022 51.5907 100.344 51.0637 98.3773C50.5368 96.4101 50.8129 94.3141 51.8311 92.5504ZM62.321 126.29C61.4471 126.794 60.4824 127.121 59.4822 127.252C58.482 127.383 57.4661 127.315 56.4919 127.053C55.5178 126.791 54.6047 126.34 53.8049 125.725C53.0052 125.111 52.3346 124.344 51.8311 123.47C50.8129 121.707 50.5368 119.611 51.0637 117.643C51.5907 115.676 52.8774 113.999 54.6409 112.98C56.4061 111.962 58.5036 111.686 60.4724 112.212C62.4412 112.739 64.1203 114.026 65.1409 115.79C66.1587 117.557 66.4336 119.655 65.9048 121.624C65.376 123.593 64.0869 125.271 62.321 126.29ZM78.6111 138.94C76.5742 138.94 74.6207 138.131 73.1804 136.691C71.7401 135.251 70.9309 133.297 70.9309 131.26C70.9309 129.224 71.7401 127.27 73.1804 125.83C74.6207 124.389 76.5742 123.58 78.6111 123.58C79.62 123.579 80.6191 123.777 81.5515 124.162C82.4839 124.548 83.331 125.113 84.0444 125.827C84.7579 126.54 85.3235 127.387 85.709 128.32C86.0945 129.252 86.2923 130.251 86.291 131.26C86.291 133.297 85.4818 135.251 84.0415 136.691C82.6012 138.131 80.6479 138.94 78.6111 138.94ZM105.391 123.47C104.888 124.345 104.218 125.113 103.418 125.728C102.619 126.344 101.706 126.795 100.731 127.057C99.7567 127.319 98.7402 127.386 97.7397 127.255C96.7393 127.123 95.7745 126.795 94.9009 126.29C93.1367 125.27 91.8499 123.591 91.323 121.622C90.7961 119.653 91.0724 117.556 92.0911 115.79C93.1097 114.027 94.787 112.74 96.7542 112.213C98.7213 111.686 100.817 111.962 102.581 112.98C103.455 113.484 104.221 114.155 104.836 114.955C105.45 115.755 105.901 116.668 106.162 117.642C106.423 118.617 106.49 119.633 106.357 120.633C106.225 121.633 105.896 122.597 105.391 123.47ZM102.581 103C100.817 104.019 98.7213 104.294 96.7542 103.768C94.787 103.241 93.1097 101.954 92.0911 100.19C91.0729 98.4266 90.7968 96.3307 91.3237 94.3635C91.8507 92.3963 93.1374 90.719 94.9009 89.7004C96.6646 88.6822 98.7606 88.4062 100.728 88.9332C102.695 89.4601 104.372 90.7469 105.391 92.5104C105.896 93.3834 106.225 94.3475 106.357 95.3475C106.49 96.3476 106.423 97.3639 106.162 98.3383C105.901 99.3127 105.45 100.226 104.836 101.026C104.221 101.826 103.455 102.497 102.581 103Z" fill="#0072FF"/>
<path d="M114.74 138.48C114.212 138.478 113.686 138.421 113.17 138.31C108.9 137.31 107.17 132.77 107.17 132.58C107.11 132.417 107.083 132.243 107.091 132.069C107.099 131.895 107.141 131.725 107.216 131.567C107.29 131.41 107.395 131.269 107.525 131.153C107.654 131.036 107.806 130.947 107.97 130.89C108.132 130.831 108.305 130.805 108.477 130.813C108.649 130.821 108.818 130.863 108.974 130.936C109.131 131.009 109.271 131.113 109.387 131.241C109.503 131.368 109.592 131.518 109.65 131.68C109.65 131.74 110.94 135.11 113.78 135.74C116.2 136.27 119.33 134.74 122.84 131.2C122.963 131.077 123.109 130.979 123.269 130.913C123.43 130.846 123.602 130.812 123.775 130.812C123.949 130.812 124.121 130.846 124.282 130.913C124.442 130.979 124.588 131.077 124.71 131.2C124.956 131.447 125.094 131.782 125.094 132.13C125.094 132.478 124.956 132.813 124.71 133.06C121.08 136.67 117.75 138.48 114.74 138.48Z" fill="#0072FF"/>
</svg>
