<svg width="201" height="240" viewBox="0 0 201 240" fill="none" xmlns="http://www.w3.org/2000/svg">
<g opacity="0.3">
<path opacity="0.3" d="M140.24 49.24C134.773 49.2347 129.531 47.0606 125.666 43.1947C121.8 39.3288 119.626 34.0871 119.62 28.62V0H27.4803C20.3433 0 13.4987 2.83514 8.45209 7.88174C3.40548 12.9283 0.570312 19.773 0.570312 26.91V189.13C0.580911 196.26 3.42073 203.094 8.46619 208.132C13.5116 213.17 20.3502 216 27.4803 216H138.09C145.222 216 152.062 213.169 157.108 208.129C162.154 203.089 164.992 196.252 165 189.12V49.24H140.24Z" fill="#FF3E4C"/>
</g>
<path d="M165.001 49.24H140.241C134.774 49.2347 129.532 47.0606 125.666 43.1947C121.801 39.3288 119.626 34.0871 119.621 28.62V0L165.001 49.24Z" fill="#FF3E4C"/>
<path d="M184.51 170.6H59.4702C50.6005 170.6 43.4102 177.79 43.4102 186.659V223.939C43.4102 232.809 50.6005 240 59.4702 240H184.51C193.38 240 200.57 232.809 200.57 223.939V186.659C200.57 177.79 193.38 170.6 184.51 170.6Z" fill="#FF3E4C"/>
<path d="M79.2311 213.37V220.64H71.7012V213.37H79.2311Z" fill="white"/>
<path d="M116.83 190.78V220.64H109.56V202L103.09 220.67H96.8L90.29 201.96V220.67H83V190.81H91.89L100.01 211.61L108.01 190.81L116.83 190.78Z" fill="white"/>
<path d="M129.12 210.09V220.64H121.85V190.57H133.63C137.2 190.57 139.93 191.46 141.8 193.23C142.745 194.159 143.483 195.277 143.966 196.511C144.449 197.745 144.664 199.067 144.6 200.39C144.636 202.139 144.204 203.865 143.35 205.39C142.477 206.882 141.182 208.082 139.63 208.84C137.755 209.721 135.7 210.149 133.63 210.09H129.12ZM137.2 200.39C137.2 197.764 135.74 196.447 132.82 196.44H129.12V204.27H132.82C135.74 204.27 137.2 202.977 137.2 200.39Z" fill="white"/>
<path d="M163.91 190.34C165.323 190.982 166.516 192.025 167.34 193.34C168.126 194.628 168.532 196.112 168.51 197.62C168.589 199.324 168.053 200.999 167 202.34C166.04 203.502 164.709 204.297 163.23 204.59V204.81C167.123 206.05 169.067 208.473 169.06 212.08C169.089 213.696 168.677 215.29 167.87 216.69C167.051 218.061 165.843 219.157 164.4 219.84C162.691 220.632 160.823 221.019 158.94 220.97C155.48 220.97 152.73 220.12 150.71 218.42C148.69 216.72 147.58 214.12 147.41 210.63H154.51C154.502 211.777 154.894 212.892 155.62 213.78C156.004 214.182 156.472 214.493 156.991 214.692C157.51 214.891 158.066 214.972 158.62 214.93C159.076 214.955 159.532 214.884 159.959 214.722C160.386 214.56 160.775 214.311 161.1 213.99C161.408 213.669 161.649 213.29 161.807 212.874C161.965 212.458 162.037 212.015 162.02 211.57C162.02 209.097 160.233 207.863 156.66 207.87H155.3V201.96H156.62C159.82 202.007 161.42 200.857 161.42 198.51C161.45 198.081 161.391 197.65 161.249 197.244C161.106 196.839 160.882 196.466 160.59 196.15C160.295 195.867 159.944 195.647 159.561 195.505C159.177 195.362 158.769 195.299 158.36 195.32C157.907 195.293 157.454 195.369 157.035 195.542C156.616 195.715 156.242 195.981 155.94 196.32C155.311 197.116 154.96 198.096 154.94 199.11H147.83C147.813 197.751 148.07 196.402 148.585 195.145C149.101 193.887 149.864 192.746 150.83 191.79C152.67 190.09 155.25 189.24 158.57 189.24C160.41 189.201 162.235 189.577 163.91 190.34Z" fill="white"/>
<path d="M120.8 131.92H109.85V87.6596C109.85 86.1771 109.261 84.7552 108.213 83.7069C107.164 82.6586 105.743 82.0696 104.26 82.0696H76.2599C75.5259 82.0696 74.7989 82.2142 74.1207 82.4951C73.4425 82.776 72.8263 83.1878 72.3072 83.7069C71.7881 84.226 71.3764 84.8422 71.0955 85.5204C70.8145 86.1986 70.6699 86.9255 70.6699 87.6596V131.92H59.6699V83.9196C59.6699 82.2352 60.0019 80.5673 60.6468 79.0113C61.2917 77.4552 62.2368 76.0415 63.4283 74.851C64.6199 73.6604 66.0343 72.7163 67.5909 72.0726C69.1474 71.4289 70.8156 71.0983 72.4999 71.0996H108C111.4 71.0996 114.661 72.4503 117.065 74.8545C119.469 77.2587 120.82 80.5195 120.82 83.9196L120.8 131.92Z" fill="#FF3E4C"/>
<path d="M107.82 144.899C114.988 144.899 120.8 139.088 120.8 131.919C120.8 124.751 114.988 118.939 107.82 118.939C100.651 118.939 94.8398 124.751 94.8398 131.919C94.8398 139.088 100.651 144.899 107.82 144.899Z" fill="#FF3E4C"/>
<path d="M57.7495 144.899C64.9182 144.899 70.7296 139.088 70.7296 131.919C70.7296 124.751 64.9182 118.939 57.7495 118.939C50.5809 118.939 44.7695 124.751 44.7695 131.919C44.7695 139.088 50.5809 144.899 57.7495 144.899Z" fill="#FF3E4C"/>
</svg>
