<svg width="201" height="240" viewBox="0 0 201 240" fill="none" xmlns="http://www.w3.org/2000/svg">
<g opacity="0.3">
<path opacity="0.3" d="M140.24 49.24C134.773 49.2347 129.531 47.0606 125.666 43.1947C121.8 39.3288 119.626 34.0871 119.62 28.62V0H27.4803C20.3433 0 13.4987 2.83517 8.45209 7.88177C3.40548 12.9284 0.570312 19.773 0.570312 26.91V189.13C0.580911 196.26 3.42073 203.094 8.46619 208.132C13.5116 213.17 20.3502 216 27.4803 216H138.09C145.222 216 152.062 213.169 157.108 208.129C162.154 203.089 164.992 196.252 165 189.12V49.24H140.24Z" fill="#005FAD"/>
</g>
<path d="M165.001 49.24H140.241C134.774 49.2347 129.532 47.0606 125.666 43.1947C121.801 39.3288 119.626 34.0871 119.621 28.62V0L165.001 49.24Z" fill="#005FAD"/>
<path d="M184.51 170.6H59.4702C50.6005 170.6 43.4102 177.79 43.4102 186.66V223.94C43.4102 232.809 50.6005 240 59.4702 240H184.51C193.38 240 200.57 232.809 200.57 223.94V186.66C200.57 177.79 193.38 170.6 184.51 170.6Z" fill="#005FAD"/>
<path d="M79.6296 213.37V220.64H72.0996V213.37H79.6296Z" fill="white"/>
<path d="M90.6902 210.1V220.64H83.4102V190.57H95.1902C98.7702 190.57 101.494 191.457 103.36 193.23C104.308 194.16 105.048 195.279 105.532 196.515C106.017 197.75 106.234 199.075 106.17 200.4C106.202 202.149 105.767 203.875 104.91 205.4C104.042 206.893 102.746 208.091 101.19 208.84C99.3192 209.733 97.262 210.165 95.1902 210.1H90.6902ZM98.7702 200.4C98.7702 197.734 97.3102 196.4 94.3902 196.4H90.6902V204.23H94.3902C97.3102 204.257 98.7702 202.98 98.7702 200.4Z" fill="white"/>
<path d="M136.451 220.64H129.18L117 202.18V220.64H109.73V190.57H117L129.17 209.2V190.57H136.44L136.451 220.64Z" fill="white"/>
<path d="M164.861 193C167.288 194.815 168.918 197.499 169.411 200.49H161.711C161.206 199.418 160.395 198.521 159.381 197.909C158.235 197.23 156.923 196.884 155.591 196.909C154.557 196.867 153.525 197.051 152.57 197.451C151.614 197.85 150.758 198.453 150.061 199.219C148.6 200.975 147.857 203.219 147.981 205.5C147.981 208.36 148.711 210.556 150.171 212.09C150.992 212.886 151.97 213.502 153.043 213.898C154.116 214.295 155.26 214.462 156.401 214.39C158.033 214.418 159.629 213.916 160.951 212.96C162.298 211.951 163.269 210.523 163.711 208.9H154.531V203.669H169.801V211C169.21 212.788 168.283 214.448 167.071 215.89C165.762 217.442 164.131 218.691 162.291 219.549C160.205 220.513 157.928 220.991 155.631 220.95C152.84 221.02 150.08 220.351 147.631 219.01C145.39 217.753 143.566 215.869 142.381 213.59C141.114 211.134 140.478 208.402 140.531 205.64C140.471 202.86 141.107 200.11 142.381 197.64C143.564 195.365 145.381 193.483 147.611 192.219C150.024 190.89 152.747 190.224 155.501 190.289C158.836 190.126 162.13 191.08 164.861 193Z" fill="white"/>
<path d="M55.2695 66.7197H41.5195V80.4697H55.2695V66.7197Z" fill="#005FAD"/>
<path d="M69.0312 80.4697H55.2812V94.2197H69.0312V80.4697Z" fill="#005FAD"/>
<path d="M82.7812 66.7197H69.0312V80.4697H82.7812V66.7197Z" fill="#005FAD"/>
<path d="M96.5313 80.4697H82.7812V94.2197H96.5313V80.4697Z" fill="#005FAD"/>
<path d="M110.301 66.7197H96.5508V80.4697H110.301V66.7197Z" fill="#005FAD"/>
<path d="M124.051 80.4697H110.301V94.2197H124.051V80.4697Z" fill="#005FAD"/>
<path d="M55.2695 94.2002H41.5195V107.95H55.2695V94.2002Z" fill="#005FAD"/>
<path d="M69.0312 107.95H55.2812V121.7H69.0312V107.95Z" fill="#005FAD"/>
<path d="M82.7812 94.2002H69.0312V107.95H82.7812V94.2002Z" fill="#005FAD"/>
<path d="M96.5313 107.95H82.7812V121.7H96.5313V107.95Z" fill="#005FAD"/>
<path d="M110.301 94.2002H96.5508V107.95H110.301V94.2002Z" fill="#005FAD"/>
<path d="M124.051 107.95H110.301V121.7H124.051V107.95Z" fill="#005FAD"/>
<path d="M55.2695 121.811H41.5195V135.561H55.2695V121.811Z" fill="#005FAD"/>
<path d="M69.0312 135.561H55.2812V149.311H69.0312V135.561Z" fill="#005FAD"/>
<path d="M82.7812 121.811H69.0312V135.561H82.7812V121.811Z" fill="#005FAD"/>
<path d="M96.5313 135.561H82.7812V149.311H96.5313V135.561Z" fill="#005FAD"/>
<path d="M110.301 121.811H96.5508V135.561H110.301V121.811Z" fill="#005FAD"/>
<path d="M124.051 135.561H110.301V149.311H124.051V135.561Z" fill="#005FAD"/>
</svg>
