<svg width="200" height="240" viewBox="0 0 200 240" fill="none" xmlns="http://www.w3.org/2000/svg">
<g opacity="0.3">
<path opacity="0.3" d="M139.67 49.24C134.203 49.2347 128.961 47.0606 125.095 43.1947C121.229 39.3288 119.055 34.0871 119.05 28.62V0H26.91C19.7748 -4.92665e-07 12.9316 2.83379 7.88528 7.87823C2.83897 12.9227 0.00265152 19.7648 0 26.9V189.12C0.0079507 196.252 2.84661 203.089 7.89235 208.129C12.9381 213.169 19.7782 216 26.91 216H137.51C141.045 216.001 144.545 215.306 147.811 213.954C151.077 212.603 154.045 210.621 156.545 208.122C159.045 205.623 161.028 202.656 162.381 199.39C163.734 196.125 164.43 192.625 164.43 189.09V49.24H139.67Z" fill="#FF3E4C"/>
</g>
<path d="M164.431 49.24H139.671C134.204 49.2347 128.962 47.0606 125.096 43.1947C121.23 39.3288 119.056 34.0871 119.051 28.62V0L164.431 49.24Z" fill="#FF3E4C"/>
<path d="M183.94 170.6H58.8998C50.0302 170.6 42.8398 177.79 42.8398 186.66V223.94C42.8398 232.809 50.0302 240 58.8998 240H183.94C192.81 240 200 232.809 200 223.94V186.66C200 177.79 192.81 170.6 183.94 170.6Z" fill="#FF3E4C"/>
<path d="M72.6997 213.37V220.64H65.1797V213.37H72.6997Z" fill="white"/>
<path d="M91.9302 220.64L85.4203 209.29H83.7603V220.64H76.4902V190.57H88.9102C90.9794 190.512 93.0337 190.936 94.9102 191.81C96.4545 192.54 97.7436 193.718 98.6102 195.19C99.4476 196.689 99.872 198.383 99.8402 200.1C99.8967 202.108 99.2612 204.074 98.0403 205.67C96.6939 207.285 94.8395 208.395 92.7802 208.82L100 220.64H91.9302ZM83.7603 204.31H88.2702C89.4223 204.396 90.5638 204.038 91.4602 203.31C91.8156 202.936 92.0884 202.492 92.2607 202.006C92.433 201.52 92.501 201.004 92.4602 200.49C92.494 199.978 92.4228 199.465 92.2508 198.981C92.0788 198.498 91.8098 198.055 91.4602 197.68C90.5771 196.941 89.4375 196.581 88.2903 196.68H83.7802L83.7603 204.31Z" fill="white"/>
<path d="M122.17 215.16H110.9L109 220.64H101.34L112.34 190.79H120.72L131.72 220.64H124L122.17 215.16ZM120.3 209.63L116.56 198.57L112.77 209.63H120.3Z" fill="white"/>
<path d="M175.46 190.57L168.28 220.64H159.28L154.47 200.53L149.62 220.64H140.62L133.43 190.57H141.34L145.21 212.35L150.48 190.57H158.48L163.75 212.35L167.66 190.57H175.46Z" fill="white"/>
<path d="M65.3393 123.66H41.0593C39.16 118.657 38.1907 113.35 38.1993 108C38.192 102.652 39.1612 97.3487 41.0593 92.3496C41.8152 90.3702 42.7142 88.4484 43.7493 86.5996L47.0993 92.3496L56.2893 108.12L60.2893 115.06L65.3393 123.66Z" fill="#FF3E4C"/>
<path d="M116.32 135.84C109.578 144.108 100.06 149.645 89.5401 151.42C87.3217 151.788 85.0786 151.989 82.8301 152.02L86.3701 146.02L95.3701 130.66L99.4501 123.66L104.45 115.1L109.35 123.66L113.35 130.66L116.32 135.84Z" fill="#FF3E4C"/>
<path d="M126.23 108.001C126.239 113.349 125.266 118.653 123.36 123.651C122.604 125.64 121.705 127.571 120.67 129.431L117.37 123.651L108.51 108.181L104.51 101.181L99.4297 92.3105H123.33C125.251 97.3183 126.234 102.637 126.23 108.001Z" fill="#FF3E4C"/>
<path d="M120 85.4102H77.3203L82.4103 76.5303L86.4103 69.5303L89.2603 64.5303C100.057 66.2718 109.816 71.9768 116.63 80.5303C117.863 82.0789 118.989 83.7093 120 85.4102Z" fill="#FF3E4C"/>
<path d="M81.5699 64L78.3999 69.53L69.3099 85.41L65.3099 92.41L60.3099 101.22L55.1699 92.41L51.1699 85.41L48.1699 80.23C55.0494 71.7602 64.8342 66.1531 75.6199 64.5C77.5898 64.2002 79.5776 64.0331 81.5699 64Z" fill="#FF3E4C"/>
<path d="M87.3195 130.62L82.3195 139.08L78.3195 145.96L75.1094 151.46C64.6055 149.742 55.0806 144.274 48.2995 136.07C46.8798 134.351 45.5896 132.53 44.4395 130.62H87.3195Z" fill="#FF3E4C"/>
</svg>
