<svg width="201" height="240" viewBox="0 0 201 240" fill="none" xmlns="http://www.w3.org/2000/svg">
<g opacity="0.3">
<path opacity="0.3" d="M139.811 49.24C134.344 49.2347 129.102 47.0606 125.236 43.1947C121.37 39.3288 119.196 34.0871 119.191 28.62V0H27.0607C19.921 0 13.0737 2.83616 8.02527 7.88464C2.97679 12.9331 0.140625 19.7804 0.140625 26.92V189.13C0.140625 196.27 2.97679 203.117 8.02527 208.165C13.0737 213.214 19.921 216.05 27.0607 216.05H137.661C141.195 216.05 144.695 215.354 147.961 214.001C151.226 212.648 154.193 210.665 156.692 208.165C159.191 205.665 161.173 202.697 162.525 199.431C163.877 196.165 164.572 192.665 164.571 189.13V49.25L139.811 49.24Z" fill="#FF9908"/>
</g>
<path d="M164.571 49.24H139.812C134.344 49.2347 129.103 47.0606 125.237 43.1947C121.371 39.3288 119.197 34.0871 119.191 28.62V0L164.571 49.24Z" fill="#FF9908"/>
<path d="M184.09 170.6H59.0502C50.1805 170.6 42.9902 177.79 42.9902 186.66V223.94C42.9902 232.81 50.1805 240 59.0502 240H184.09C192.96 240 200.15 232.81 200.15 223.94V186.66C200.15 177.79 192.96 170.6 184.09 170.6Z" fill="#FF9908"/>
<path d="M80.1394 213.37V220.65H72.6094V213.37H80.1394Z" fill="white"/>
<path d="M104.322 216.56C103.462 217.943 102.223 219.051 100.752 219.75C98.9622 220.592 96.999 221 95.022 220.94C92.05 221.061 89.1211 220.197 86.6919 218.48C85.6153 217.676 84.7348 216.638 84.1165 215.445C83.4982 214.251 83.1582 212.933 83.122 211.59H90.862C90.9172 212.603 91.3487 213.559 92.0719 214.27C92.7919 214.941 93.7481 215.301 94.732 215.27C95.5397 215.316 96.3332 215.043 96.9419 214.51C97.2087 214.251 97.4185 213.94 97.558 213.595C97.6975 213.251 97.7636 212.881 97.752 212.51C97.7627 212.156 97.7018 211.803 97.5729 211.473C97.444 211.144 97.2499 210.843 97.002 210.59C96.4748 210.054 95.8458 209.629 95.152 209.34C94.412 209.013 93.392 208.623 92.092 208.17C90.4982 207.645 88.9415 207.013 87.432 206.28C86.1911 205.637 85.1266 204.7 84.3319 203.55C83.4094 202.162 82.954 200.515 83.032 198.85C82.99 197.202 83.4656 195.583 84.392 194.22C85.3388 192.883 86.6463 191.842 88.162 191.22C89.9076 190.514 91.7796 190.173 93.662 190.22C96.5242 190.06 99.3527 190.901 101.662 192.6C102.625 193.383 103.419 194.354 103.993 195.455C104.567 196.556 104.911 197.762 105.002 199H97.132C97.0415 198.114 96.658 197.283 96.042 196.64C95.7285 196.342 95.3575 196.111 94.9517 195.962C94.5459 195.812 94.1139 195.747 93.682 195.77C92.9346 195.732 92.1998 195.974 91.622 196.45C91.3504 196.704 91.1386 197.015 91.002 197.361C90.8654 197.707 90.8072 198.079 90.8319 198.45C90.8253 198.782 90.8846 199.112 91.0065 199.421C91.1284 199.73 91.3105 200.012 91.542 200.25C92.0398 200.772 92.6386 201.187 93.302 201.47C94.012 201.78 95.032 202.18 96.362 202.66C97.9832 203.179 99.5613 203.825 101.082 204.59C102.336 205.26 103.415 206.216 104.232 207.38C105.163 208.788 105.625 210.454 105.552 212.14C105.568 213.7 105.141 215.232 104.322 216.56Z" fill="white"/>
<path d="M115.192 190.58L122.542 213.2L129.902 190.58H137.692L127.222 220.65H117.822L107.402 190.58H115.192Z" fill="white"/>
<path d="M163.882 193C166.306 194.819 167.939 197.501 168.442 200.49H160.742C160.24 199.417 159.424 198.521 158.402 197.92C157.257 197.24 155.944 196.893 154.612 196.92C153.577 196.878 152.545 197.064 151.589 197.464C150.633 197.865 149.778 198.471 149.082 199.24C147.619 200.991 146.876 203.232 147.002 205.51C147.002 208.37 147.732 210.566 149.192 212.1C150.013 212.896 150.991 213.512 152.064 213.908C153.137 214.304 154.281 214.472 155.422 214.4C157.054 214.43 158.651 213.928 159.972 212.97C161.321 211.962 162.296 210.534 162.742 208.91H153.552V203.68H168.822V210.87C168.235 212.658 167.312 214.318 166.102 215.76C164.787 217.309 163.153 218.558 161.312 219.42C159.23 220.382 156.956 220.861 154.662 220.82C151.872 220.893 149.112 220.227 146.662 218.89C144.421 217.629 142.596 215.742 141.412 213.46C140.14 210.989 139.504 208.239 139.562 205.46C139.512 202.698 140.148 199.966 141.412 197.51C142.594 195.233 144.411 193.347 146.642 192.08C149.055 190.751 151.778 190.085 154.532 190.15C157.88 190.029 161.171 191.033 163.882 193Z" fill="white"/>
<path d="M123.171 127.73H120.681C120.668 117.638 116.652 107.964 109.515 100.829C102.378 93.6937 92.7025 89.6807 82.6107 89.6702C72.5198 89.6808 62.8453 93.694 55.71 100.829C48.5746 107.965 44.5614 117.639 44.5508 127.73H42.0508C42.064 116.978 46.3418 106.67 53.9457 99.068C61.5496 91.466 71.8585 87.1908 82.6107 87.1802C93.3629 87.1908 103.672 91.466 111.276 99.068C118.88 106.67 123.158 116.978 123.171 127.73Z" fill="#FF9908"/>
<path d="M140.24 87.1802H24.9805V89.6702H140.24V87.1802Z" fill="#FF9908"/>
<path d="M47.2806 123.75H39.3105V131.72H47.2806V123.75Z" fill="#FF9908"/>
<path d="M125.9 123.75H117.93V131.72H125.9V123.75Z" fill="#FF9908"/>
<path d="M86.5911 84.3101H78.6211V92.28H86.5911V84.3101Z" fill="#FF9908"/>
<path d="M24.8513 92.29C27.0549 92.29 28.8414 90.5037 28.8414 88.3C28.8414 86.0964 27.0549 84.3101 24.8513 84.3101C22.6477 84.3101 20.8613 86.0964 20.8613 88.3C20.8613 90.5037 22.6477 92.29 24.8513 92.29Z" fill="#FF9908"/>
<path d="M139.861 92.29C142.065 92.29 143.851 90.5037 143.851 88.3C143.851 86.0964 142.065 84.3101 139.861 84.3101C137.657 84.3101 135.871 86.0964 135.871 88.3C135.871 90.5037 137.657 92.29 139.861 92.29Z" fill="#FF9908"/>
</svg>
