<svg width="201" height="240" viewBox="0 0 201 240" fill="none" xmlns="http://www.w3.org/2000/svg">
<g opacity="0.3">
<path opacity="0.3" d="M140.381 49.24C134.914 49.2347 129.672 47.0606 125.806 43.1947C121.94 39.3288 119.766 34.0871 119.761 28.62V1.85821e-06H27.631C24.0963 -0.00131167 20.5959 0.693768 17.3298 2.04553C14.0638 3.3973 11.0962 5.37928 8.59631 7.87824C6.09643 10.3772 4.11336 13.3442 2.76038 16.6097C1.4074 19.8752 0.710937 23.3753 0.710938 26.91V189.13C0.721538 196.262 3.56273 203.098 8.61035 208.136C13.658 213.174 20.4992 216.003 27.631 216H138.231C141.765 216 145.264 215.304 148.529 213.952C151.794 212.599 154.76 210.617 157.259 208.118C159.758 205.619 161.74 202.653 163.093 199.388C164.445 196.123 165.141 192.624 165.141 189.09V49.24H140.381Z" fill="#00C650"/>
</g>
<path d="M165.142 49.24H140.382C134.915 49.2347 129.673 47.0606 125.807 43.1947C121.941 39.3288 119.767 34.0871 119.762 28.62V0L165.142 49.24Z" fill="#00C650"/>
<path d="M184.662 170.6H59.6224C50.7527 170.6 43.5625 177.79 43.5625 186.659V223.939C43.5625 232.809 50.7527 240 59.6224 240H184.662C193.532 240 200.722 232.809 200.722 223.939V186.659C200.722 177.79 193.532 170.6 184.662 170.6Z" fill="#00C650"/>
<path d="M72.0613 213.37V220.64H64.5312V213.37H72.0613Z" fill="white"/>
<path d="M116.721 190.57L109.531 220.64H100.531L95.7314 200.52L90.8815 220.64H81.8815L74.6914 190.57H82.6014L86.4714 212.35L91.7515 190.57H99.7515L105.031 212.35L108.941 190.57H116.721Z" fill="white"/>
<path d="M139.183 215.15H127.903L126.033 220.64H118.383L129.383 190.78H137.763L148.763 220.64H141.023L139.183 215.15ZM137.303 209.62L133.563 198.57L129.783 209.62H137.303Z" fill="white"/>
<path d="M157.21 190.57L164.57 213.2L171.93 190.57H179.71L169.25 220.64H159.85L149.43 190.57H157.21Z" fill="white"/>
<path d="M120.942 131.92H109.942V87.6596C109.942 86.177 109.354 84.7552 108.305 83.7069C107.257 82.6586 105.835 82.0696 104.352 82.0696H76.3524C74.8699 82.0696 73.448 82.6586 72.3997 83.7069C71.3513 84.7552 70.7625 86.177 70.7625 87.6596V131.92H59.8125V83.9196C59.8125 80.5195 61.1632 77.2587 63.5674 74.8545C65.9716 72.4503 69.2324 71.0996 72.6324 71.0996H108.042C111.443 71.0996 114.703 72.4503 117.108 74.8545C119.512 77.2587 120.862 80.5195 120.862 83.9196L120.942 131.92Z" fill="#00C650"/>
<path d="M107.96 144.899C115.129 144.899 120.94 139.088 120.94 131.919C120.94 124.751 115.129 118.939 107.96 118.939C100.792 118.939 94.9805 124.751 94.9805 131.919C94.9805 139.088 100.792 144.899 107.96 144.899Z" fill="#00C650"/>
<path d="M57.9019 144.899C65.0705 144.899 70.8818 139.088 70.8818 131.919C70.8818 124.751 65.0705 118.939 57.9019 118.939C50.7332 118.939 44.9219 124.751 44.9219 131.919C44.9219 139.088 50.7332 144.899 57.9019 144.899Z" fill="#00C650"/>
</svg>
