<svg width="200" height="240" viewBox="0 0 200 240" fill="none" xmlns="http://www.w3.org/2000/svg">
<g opacity="0.3">
<path opacity="0.3" d="M139.67 49.24C134.203 49.2347 128.961 47.0606 125.095 43.1947C121.229 39.3288 119.055 34.0871 119.05 28.62V0H26.91C19.7748 -4.92664e-07 12.9316 2.83379 7.88528 7.87823C2.83897 12.9227 0.00265152 19.7648 0 26.9V189.12C0.0079507 196.252 2.84661 203.089 7.89235 208.129C12.9381 213.169 19.7782 216 26.91 216H137.51C141.045 216.001 144.545 215.306 147.811 213.954C151.077 212.603 154.045 210.621 156.545 208.122C159.045 205.623 161.028 202.656 162.381 199.39C163.734 196.125 164.43 192.625 164.43 189.09V49.24H139.67Z" fill="#FF9908"/>
</g>
<path d="M164.431 49.24H139.671C134.204 49.2347 128.962 47.0606 125.096 43.1947C121.23 39.3288 119.056 34.0871 119.051 28.62V0L164.431 49.24Z" fill="#FF9908"/>
<path d="M183.94 170.6H58.8998C50.0302 170.6 42.8398 177.79 42.8398 186.659V223.939C42.8398 232.809 50.0302 240 58.8998 240H183.94C192.81 240 200 232.809 200 223.939V186.659C200 177.79 192.81 170.6 183.94 170.6Z" fill="#FF9908"/>
<path d="M67.0007 213.37V220.64H59.4707V213.37H67.0007Z" fill="white"/>
<path d="M111.661 190.57L104.471 220.64H95.4709L90.6709 200.52L85.8209 220.64H76.8209L69.6309 190.57H77.5409L81.4109 212.35L86.6909 190.57H94.6909L99.9709 212.35L103.881 190.57H111.661Z" fill="white"/>
<path d="M149.299 190.78V220.64H141.999V202L135.529 220.67H129.239L122.729 201.96V220.67H115.449V190.81H124.339L132.469 211.61L140.419 190.81L149.299 190.78Z" fill="white"/>
<path d="M173 215.15H161.68L159.8 220.64H152.15L163.15 190.78H171.53L182.53 220.64H174.79L173 215.15ZM171.13 209.62L167.38 198.57L163.6 209.62H171.13Z" fill="white"/>
<path d="M117.65 131.92H106.7V87.6596C106.7 86.177 106.111 84.7552 105.062 83.7069C104.014 82.6586 102.592 82.0696 101.11 82.0696H73.1095C71.627 82.0696 70.2052 82.6586 69.1568 83.7069C68.1085 84.7552 67.5195 86.177 67.5195 87.6596V131.92H56.5195V83.9196C56.5222 80.5186 57.8751 77.2578 60.2809 74.8539C62.6867 72.45 65.9486 71.0996 69.3495 71.0996H104.76C108.16 71.0996 111.42 72.4503 113.825 74.8545C116.229 77.2587 117.58 80.5195 117.58 83.9196L117.65 131.92Z" fill="#FF9908"/>
<path d="M104.669 144.899C111.838 144.899 117.649 139.088 117.649 131.919C117.649 124.751 111.838 118.939 104.669 118.939C97.5008 118.939 91.6895 124.751 91.6895 131.919C91.6895 139.088 97.5008 144.899 104.669 144.899Z" fill="#FF9908"/>
<path d="M54.5991 144.899C61.7678 144.899 67.5791 139.088 67.5791 131.919C67.5791 124.751 61.7678 118.939 54.5991 118.939C47.4305 118.939 41.6191 124.751 41.6191 131.919C41.6191 139.088 47.4305 144.899 54.5991 144.899Z" fill="#FF9908"/>
</svg>
